<svg version="1.1" viewBox="0.0 0.0 16.0 16.0" fill="none" stroke="none" stroke-linecap="square" stroke-miterlimit="10" xmlns:xlink="http://www.w3.org/1999/xlink" xmlns="http://www.w3.org/2000/svg"><clipPath id="p.0"><path d="m0 0l16.0 0l0 16.0l-16.0 0l0 -16.0z" clip-rule="nonzero"/></clipPath><g clip-path="url(#p.0)"><path fill="#000000" fill-opacity="0.0" d="m0 0l16.0 0l0 16.0l-16.0 0z" fill-rule="evenodd"/><path fill="#000000" d="m3.9520087 3.5013123c-0.69506526 0 -1.3525593 0.17655659 -1.9724821 0.52966976c-0.619923 0.35311317 -1.1052163 0.8561039 -1.4558797 1.5089707c-0.3490982 0.65129805 -0.523647 1.3536005 -0.523647 2.1069088l0 0.98165464c0 0.7203512 0.1949 1.3857727 0.58470005 1.9962664c0.3898 0.6089239 0.8617868 1.0546322 1.4159603 1.3371229c0.6856723 0.35311317 1.4558794 0.52966976 2.3106217 0.52966976c0.732636 0 1.4018712 -0.12712097 2.0077047 -0.38136292c0.45085335 -0.18832684 0.8195195 -0.44727612 1.105999 -0.7768488c0.19724798 -0.2259922 0.2958722 -0.4378605 0.2958722 -0.6356039c0 -0.19774342 -0.07279396 -0.3695917 -0.21838188 -0.5155449c-0.14558792 -0.14595413 -0.3146577 -0.21893024 -0.5072098 -0.21893024c-0.10801697 0 -0.20429277 0.022755623 -0.28882742 0.068268776c-0.08453512 0.04394245 -0.20194483 0.14124489 -0.35222912 0.29190636c-0.24421215 0.24953365 -0.47433472 0.41667366 -0.69036865 0.501421c-0.3710146 0.14595318 -0.8242159 0.21893024 -1.3596039 0.21893024c-0.8970096 0 -1.5983367 -0.23305511 -2.1039805 -0.6991644c-0.504079 -0.46610928 -0.7561182 -1.0475693 -0.7561182 -1.744379l0 -0.93928146c0 -0.58381367 0.13854337 -1.0875888 0.4156301 -1.5113244c0.27708685 -0.4237361 0.5964409 -0.7297673 0.95806277 -0.91809464c0.36162162 -0.18832684 0.75846624 -0.28249025 1.1905336 -0.28249025c0.34753275 0 0.69350004 0.063560486 1.0379014 0.19068098c0.3459673 0.12712097 0.61522627 0.29661512 0.80777836 0.50848293c0.09862423 0.10828829 0.1643734 0.2613039 0.19724798 0.45904732c0.056356907 0.29661512 0.14323997 0.49906683 0.26064968 0.60735464c0.117409706 0.10828829 0.27239037 0.1624322 0.46494198 0.1624322c0.21133757 0 0.38353825 -0.07376146 0.5166025 -0.22128439c0.13462973 -0.14909172 0.20194435 -0.39784098 0.20194435 -0.74624586l0 -1.2288342c0 -0.34840488 -0.067314625 -0.5955839 -0.20194435 -0.7415376c-0.13306427 -0.14595342 -0.30526495 -0.21893024 -0.5166025 -0.21893024c-0.122106075 0 -0.23638487 0.03060317 -0.3428359 0.09180951c-0.104886055 0.06120634 -0.20194483 0.15301561 -0.29117632 0.27542806c-0.3146577 -0.19774318 -0.6543627 -0.34448123 -1.0191154 -0.44021416c-0.3631873 -0.0973022 -0.7537699 -0.14595366 -1.1717482 -0.14595366z" fill-rule="evenodd"/><path fill="#000000" d="m12.511171 3.5013123c-0.92518806 0 -1.676609 0.26051927 -2.2542648 0.78155756c-0.5776558 0.5194688 -0.86648273 1.1252537 -0.86648273 1.8173556c0 0.4378605 0.11740875 0.84511805 0.35222816 1.2217717c0.23481941 0.37665415 0.55417347 0.66856146 0.9580631 0.87572145c0.4038887 0.20715904 1.00033 0.38371563 1.7893229 0.52966976c0.6527977 0.12241173 1.0731239 0.21893024 1.2609797 0.2895527c0.286479 0.10357952 0.4931202 0.23462391 0.61992264 0.3931322c0.12680244 0.1569395 0.19020367 0.3248644 0.19020367 0.5037756c0 0.26836586 -0.13149834 0.49435806 -0.39449596 0.6779766c-0.4132824 0.3013239 -0.9416256 0.45198536 -1.5850306 0.45198536c-0.41328144 0 -0.7936888 -0.075330734 -1.141222 -0.2259922c-0.34753227 -0.15066242 -0.5893965 -0.29896927 -0.72559166 -0.4449234c-0.06574917 -0.075330734 -0.12915039 -0.2173605 -0.19020367 -0.4260893c-0.061052322 -0.21029949 -0.14950085 -0.3601761 -0.26534557 -0.44963074c-0.11427879 -0.089455605 -0.25595284 -0.13418388 -0.42502308 -0.13418388c-0.22072983 0 -0.39840984 0.07454586 -0.5330391 0.22363853c-0.13306427 0.14752293 -0.1995964 0.39548683 -0.1995964 0.7438917l0 0.97459316c0 0.3436966 0.066532135 0.59009075 0.1995964 0.7391834c0.13462925 0.14752293 0.31230927 0.22128391 0.5330391 0.22128391c0.112713814 0 0.20742416 -0.021186829 0.284132 -0.06355953c0.07827282 -0.042373657 0.18081093 -0.13889122 0.30761337 -0.28955364c0.356925 0.19303513 0.7240257 0.33742046 1.1013021 0.4331522c0.3788414 0.09730339 0.76785946 0.14595413 1.1670513 0.14595413c1.033205 0 1.8832512 -0.28249073 2.5501375 -0.8474722c0.5025139 -0.4284439 0.7537699 -1.0004873 0.7537699 -1.7161303c0 -0.5131912 -0.13149834 -0.95576 -0.39449596 -1.3277054c-0.26299763 -0.37194633 -0.59331036 -0.6450205 -0.99093723 -0.8192229c-0.3960619 -0.17420244 -0.96432495 -0.3342805 -1.7047882 -0.48023367c-0.7388983 -0.14595366 -1.1881857 -0.2518878 -1.3478622 -0.31780195c-0.23951626 -0.094163895 -0.42189217 -0.22442293 -0.54712963 -0.39077902c-0.12367153 -0.1679244 -0.18550682 -0.34134245 -0.18550682 -0.5202532c0 -0.26365805 0.15106678 -0.51632977 0.4532013 -0.7580166c0.3036995 -0.24325562 0.7161989 -0.36488342 1.2374973 -0.36488342c0.356925 0 0.6715832 0.06120634 0.94397354 0.18361855c0.27239037 0.12241268 0.47668362 0.27307463 0.6128788 0.45198536c0.0798378 0.10357952 0.14558792 0.2754283 0.1972475 0.5155449c0.051660538 0.24011707 0.12915134 0.40019512 0.23247147 0.48023415c0.13149834 0.10828829 0.28647995 0.1624322 0.46494198 0.1624322c0.21133709 0 0.38353825 -0.07376146 0.5166025 -0.22128439c0.13462925 -0.1490922 0.20194435 -0.39784098 0.20194435 -0.74624586l0 -1.0875888c0 -0.34369707 -0.0673151 -0.58930635 -0.20194435 -0.7368295c-0.13306427 -0.1490922 -0.30526543 -0.22363853 -0.5166025 -0.22363853c-0.18785572 0 -0.3757105 0.09180951 -0.5635662 0.27542853c-0.25830078 -0.16949439 -0.54634666 -0.2950456 -0.8641348 -0.37665415c-0.31622314 -0.08317757 -0.6598425 -0.12476683 -1.0308571 -0.12476683z" fill-rule="evenodd"/></g></svg>