<svg version="1.1" viewBox="0.0 0.0 900.2834645669292 131.90551181102362" fill="none" stroke="none" stroke-linecap="square" stroke-miterlimit="10" xmlns:xlink="http://www.w3.org/1999/xlink" xmlns="http://www.w3.org/2000/svg"><clipPath id="p.0"><path d="m0 0l900.28345 0l0 131.90552l-900.28345 0l0 -131.90552z" clip-rule="nonzero"/></clipPath><g clip-path="url(#p.0)"><path fill="#000000" fill-opacity="0.0" d="m0 0l900.28345 0l0 131.90552l-900.28345 0z" fill-rule="evenodd"/><path fill="#03fa6e" d="m59.589783 -0.028871391c-17.855064 0 -32.260857 5.8743925 -43.21737 17.62318c-10.956518 11.729467 -16.434776 28.202887 -16.434776 49.420273c0 20.05796 5.449273 35.874374 16.347818 47.449257c10.898546 11.555542 24.811584 17.333328 41.739113 17.333328c13.681152 0 24.966164 -3.371994 33.855057 -10.115944c8.908203 -6.763283 15.27536 -17.10144 19.10144 -31.01448l-24.956505 -7.91304c-2.144928 9.333328 -5.68116 16.173912 -10.608696 20.521736c-4.927536 4.347824 -10.811584 6.521736 -17.652164 6.521736c-9.27536 0 -16.811588 -3.420288 -22.608688 -10.260872c-5.797098 -6.840576 -8.695646 -18.318832 -8.695646 -34.43476c0 -15.188404 2.9371872 -26.173904 8.81159 -32.956512c5.8937073 -6.782604 13.565212 -10.173908 23.014484 -10.173908c6.840576 0 12.647324 1.913044 17.42028 5.739128c4.792259 3.826086 7.942024 9.043476 9.449272 15.652168l25.478249 -6.086956c-2.8985443 -10.202892 -7.2463684 -18.028976 -13.043472 -23.478249c-9.739128 -9.217387 -22.405785 -13.826081 -37.999985 -13.826081z" fill-rule="evenodd"/><path fill="#03fa6e" d="m177.6767 -0.028871391c-9.797104 0 -18.16426 1.4782603 -25.10144 4.434781c-6.917877 2.9565206 -12.222229 7.2656965 -15.91304 12.927531c-3.6715088 5.6425114 -5.507248 11.71014 -5.507248 18.20289c0 10.086952 3.9130402 18.637672 11.739136 25.652164c5.565216 4.9855003 15.246368 9.188404 29.043457 12.608692c10.72464 2.6666641 17.594193 4.521736 20.608688 5.5652084c4.405792 1.5652237 7.487915 3.4106216 9.246368 5.536232c1.777771 2.1062775 2.6666718 4.666664 2.6666718 7.68116c0 4.695648 -2.1062927 8.801918 -6.3188324 12.318832c-4.1932526 3.4975815 -10.434784 5.246376 -18.72464 5.246376c-7.8260803 0 -14.048309 -1.9710159 -18.666656 -5.91304c-4.599045 -3.9420319 -7.652176 -10.115936 -9.159409 -18.521736l-25.043472 2.434784c1.6811523 14.260864 6.840576 25.120758 15.478256 32.579697c8.63768 7.4396057 21.01448 11.159409 37.130417 11.159409c11.072464 0 20.318832 -1.5458832 27.73912 -4.6376724c7.420288 -3.1111145 13.159409 -7.855072 17.217377 -14.23188c4.057968 -6.376808 6.08696 -13.217384 6.08696 -20.521729c0 -8.057968 -1.7004852 -14.821251 -5.1014557 -20.289848c-3.3816223 -5.487915 -8.077286 -9.806755 -14.086945 -12.956512c-5.990341 -3.1690788 -15.246368 -6.231884 -27.768097 -9.188404c-12.521744 -2.95652 -20.405792 -5.7971 -23.652176 -8.521736c-2.5507202 -2.1449242 -3.8260803 -4.724636 -3.8260803 -7.7391243c0 -3.304348 1.36232 -5.942028 4.08696 -7.913042c4.2318726 -3.072462 10.086945 -4.608694 17.5652 -4.608694c7.2463837 0 12.676315 1.4396152 16.289856 4.31884c3.632843 2.8599033 6.0 7.5652122 7.1014404 14.115936l25.73912 -1.130436c-0.40579224 -11.710138 -4.6569977 -21.072454 -12.753616 -28.086945c-8.077301 -7.01449 -20.115936 -10.521735 -36.11592 -10.521735z" fill-rule="evenodd"/><path fill="#03fa6e" d="m248.89406 71.18849l0 24.434769l47.999985 0l0 -24.434769z" fill-rule="evenodd"/><path fill="#03fa6e" d="m347.85052 1.6233019c-11.478241 0 -21.043457 2.927535 -28.695618 8.782605c-7.652191 5.85507 -12.202911 15.50724 -13.652191 28.956509l24.34784 2.434784c0.46374512 -7.130432 2.2028809 -12.23188 5.2173767 -15.304342c3.0144958 -3.072462 7.0724487 -4.608694 12.17392 -4.608694c5.1593933 0 9.198059 1.4686012 12.115936 4.405796c2.9371948 2.9178753 4.405792 7.1014442 4.405792 12.55072c0 4.927532 -1.6811829 9.913036 -5.0434875 14.956512c-2.4927368 3.652172 -9.246368 10.608692 -20.260864 20.869556c-13.681152 12.695648 -22.840576 22.888878 -27.478241 30.579697c-4.6376953 7.6714935 -7.420288 15.797096 -8.347839 24.3768l85.65216 0l0 -22.69564l-48.52173 0c1.2753601 -2.202896 2.9371948 -4.463768 4.985504 -6.782608c2.067627 -2.31884 6.9565125 -7.014488 14.6666565 -14.086945c7.710144 -7.072464 13.043488 -12.492752 16.0 -16.260864c4.4637756 -5.68116 7.7197876 -11.111107 9.768097 -16.289848c2.0676575 -5.198063 3.101471 -10.666664 3.101471 -16.405792c0 -10.086952 -3.5942078 -18.52173 -10.782623 -25.304337c-7.188385 -6.782606 -17.072449 -10.173909 -29.65216 -10.173909z" fill-rule="evenodd"/><path fill="#03fa6e" d="m446.89398 1.6233019c-11.4782715 0 -21.043488 2.927535 -28.695648 8.782605c-7.6521606 5.85507 -12.202911 15.50724 -13.652161 28.956509l24.347809 2.434784c0.46377563 -7.130432 2.2028809 -12.23188 5.2173767 -15.304342c3.0144958 -3.072462 7.0724792 -4.608694 12.17392 -4.608694c5.159424 0 9.198059 1.4686012 12.115936 4.405796c2.9371948 2.9178753 4.405792 7.1014442 4.405792 12.55072c0 4.927532 -1.6811523 9.913036 -5.0434875 14.956512c-2.4927368 3.652172 -9.246368 10.608692 -20.260864 20.869556c-13.681152 12.695648 -22.840546 22.888878 -27.478241 30.579697c-4.637665 7.6714935 -7.420288 15.797096 -8.347809 24.3768l85.65213 0l0 -22.69564l-48.52173 0c1.2753601 -2.202896 2.9371948 -4.463768 4.985504 -6.782608c2.0676575 -2.31884 6.956543 -7.014488 14.666687 -14.086945c7.7101135 -7.072464 13.043457 -12.492752 15.9999695 -16.260864c4.4637756 -5.68116 7.719818 -11.111107 9.768127 -16.289848c2.067627 -5.198063 3.1014404 -10.666664 3.1014404 -16.405792c0 -10.086952 -3.5942078 -18.52173 -10.782593 -25.304337c-7.1884155 -6.782606 -17.07248 -10.173909 -29.65216 -10.173909z" fill-rule="evenodd"/><path fill="#03fa6e" d="m509.06787 105.18848l0 24.434769l24.434753 0l0 -24.434769z" fill-rule="evenodd"/><path fill="#03fa6e" d="m597.9374 35.188507c-13.739136 0 -24.637634 4.2512054 -32.695618 12.753616c-8.057983 8.483089 -12.086975 20.347816 -12.086975 35.594185c0 15.072464 4.0096436 26.86956 12.028992 35.39129c8.038635 8.521736 18.811584 12.782608 32.318848 12.782608c11.884033 0 21.362305 -2.8115997 28.434753 -8.434784c7.0724487 -5.623184 11.8550415 -13.942017 14.347839 -24.956505l-24.0 -4.08696c-1.2174072 6.434784 -3.3043823 10.975838 -6.2608643 13.623184c-2.956543 2.6280136 -6.753662 3.9420319 -11.391296 3.9420319c-6.202942 0 -11.14978 -2.260872 -14.840576 -6.782608c-3.6715088 -4.521736 -5.507263 -12.260864 -5.507263 -23.217384c0 -9.855064 1.8067627 -16.87922 5.420288 -21.072453c3.6328735 -4.2125587 8.492737 -6.31884 14.579712 -6.31884c4.579712 0 8.2994995 1.217392 11.159424 3.652172c2.8792114 2.434784 4.7246094 6.057968 5.536194 10.86956l24.086975 -4.347824c-2.8985596 -9.913036 -7.671509 -17.285011 -14.318848 -22.115932c-6.6279907 -4.850235 -15.565186 -7.2753563 -26.811584 -7.2753563z" fill-rule="evenodd"/><path fill="#03fa6e" d="m699.58954 55.10154c6.37677 0 11.719788 2.434784 16.02893 7.304344c4.328491 4.869568 6.492798 11.82608 6.492798 20.86956c0 9.2753525 -2.1643066 16.347816 -6.492798 21.217377c-4.309143 4.869568 -9.652161 7.304352 -16.02893 7.304352c-6.376831 0 -11.739136 -2.434784 -16.086975 -7.304352c-4.3478394 -4.8695602 -6.5217285 -11.884048 -6.5217285 -21.043465c0 -9.159416 2.1738892 -16.173904 6.5217285 -21.043472c4.3478394 -4.8695602 9.710144 -7.304344 16.086975 -7.304344zm-0.0869751 -19.913033c-9.043457 0 -17.236694 1.9999962 -24.579712 5.999996c-7.3236694 3.9999962 -12.985474 9.797096 -16.985474 17.391296c-4.0 7.5941963 -6.0 15.449268 -6.0 23.565205c0 10.608696 2.0 19.613518 6.0 27.014488c4.0 7.38163 9.835754 12.9854965 17.507202 16.811584c7.690857 3.826088 15.768127 5.739128 24.231873 5.739128c13.681152 0 25.02417 -4.5893784 34.02899 -13.768112c9.02417 -9.198067 13.536255 -20.7826 13.536255 -34.75361c0 -13.855064 -4.463806 -25.313995 -13.391357 -34.376797c-8.92749 -9.082119 -20.37677 -13.62318 -34.34778 -13.62318z" fill-rule="evenodd"/><path fill="#03fa6e" d="m815.85034 35.188507c-11.130432 0 -20.72461 4.898548 -28.782593 14.695644l0 -12.608692l-22.521729 0l0 92.347786l24.434753 0l0 -44.869545c0 -8.86956 0.64733887 -15.217384 1.9420166 -19.043472c1.3140259 -3.8260803 3.4782715 -6.7536163 6.492798 -8.7826c3.0144653 -2.028984 6.4057617 -3.04348 10.173889 -3.04348c3.1304321 0 5.603821 0.63768387 7.420288 1.913044c1.8357544 1.2753639 3.1884155 3.217392 4.0579834 5.826084c0.8695679 2.608696 1.3043213 8.405792 1.3043213 17.391296l0 50.608673l24.434753 0l0 -44.3478c0 -8.695648 0.666687 -15.053131 2.0 -19.072456c1.333374 -4.0386467 3.5072632 -7.101448 6.5217896 -9.188404c3.0144653 -2.086956 6.2318726 -3.130436 9.652161 -3.130436c4.6956177 0 8.173889 1.7391319 10.434753 5.217392c1.6811523 2.6666641 2.5217285 8.579704 2.5217285 17.73912l0 52.782585l24.434814 0l0 -59.04345c0 -8.811592 -0.8406372 -15.1884 -2.5217896 -19.130428c-2.3187866 -5.333332 -5.82605 -9.371975 -10.5217285 -12.115936c-4.6956177 -2.7632828 -10.434753 -4.144924 -17.217346 -4.144924c-5.333374 0 -10.347839 1.2173882 -15.043518 3.652172c-4.6956177 2.4347801 -9.072449 6.1159363 -13.130432 11.043472c-2.7825928 -4.927536 -6.3477783 -8.608692 -10.695618 -11.043472c-4.3478394 -2.434784 -9.4782715 -3.652172 -15.391296 -3.652172z" fill-rule="evenodd"/></g></svg>