<svg version="1.1" viewBox="0.0 0.0 472.4409448818898 128.50393700787401" fill="none" stroke="none" stroke-linecap="square" stroke-miterlimit="10" xmlns:xlink="http://www.w3.org/1999/xlink" xmlns="http://www.w3.org/2000/svg"><clipPath id="p.0"><path d="m0 0l472.44095 0l0 128.50394l-472.44095 0l0 -128.50394z" clip-rule="nonzero"/></clipPath><g clip-path="url(#p.0)"><path fill="#000000" fill-opacity="0.0" d="m0 0l472.44095 0l0 128.50394l-472.44095 0z" fill-rule="evenodd"/><path fill="#03fa6e" d="m92.5128 0.051181104c-1.9130478 0.05797099 -3.1594238 0.086956486 -3.739128 0.086956486c-11.884056 0 -20.492752 1.6811588 -25.82608 5.043476c-5.3913 3.362317 -10.753616 11.942024 -16.086948 25.739119c-4.231884 10.840574 -7.362316 17.44927 -9.3913 19.826078c-2.028984 2.376812 -5.913042 3.855072 -11.65217 4.43478l0 -54.260845l-25.73912 0l0 127.47821l25.73912 0l0 -55.826065c4.347824 0.05796814 7.5748806 0.86956024 9.681154 2.434784c2.1256104 1.5652161 4.84058 5.478256 8.144924 11.7391205c1.855072 3.536232 2.927536 5.536232 3.217392 6.0c0.75362396 1.3333282 1.246376 2.2318802 1.47826 2.6956482l15.217384 32.956512l30.260857 0l-17.391296 -34.956512c-4.463768 -8.985504 -8.570038 -15.942017 -12.318832 -20.869553c-3.7294655 -4.927536 -8.463768 -8.202896 -14.202896 -9.826084c4.63768 -2.608696 7.8647346 -5.391304 9.681156 -8.347824c1.8357506 -2.95652 3.5362282 -6.6376762 5.1014442 -11.043472c2.95652 -8.289852 5.188408 -13.76811 6.695648 -16.434776c1.5072479 -2.6666641 3.4782639 -4.647339 5.913048 -5.942026c2.4347763 -1.3140068 6.2898483 -1.971014 11.565208 -1.971014l3.652176 0.08695793l0 -19.04347z" fill-rule="evenodd"/><path fill="#03fa6e" d="m108.425835 0.92074597l0 127.47821l25.739128 0l0 -55.739113l50.434753 0l0 55.739113l25.73912 0l0 -127.47821l-25.73912 0l0 50.173893l-50.434753 0l0 -50.173893z" fill-rule="evenodd"/><path fill="#03fa6e" d="m233.991 69.964195l0 24.434776l47.99997 0l0 -24.434776z" fill-rule="evenodd"/><path fill="#03fa6e" d="m332.94748 0.39900705c-11.478241 0 -21.043457 2.927535 -28.695648 8.782605c-7.6521606 5.85507 -12.202881 15.50724 -13.652161 28.95651l24.347809 2.4347801c0.46377563 -7.130432 2.2029114 -12.231878 5.217407 -15.30434c3.0144958 -3.072462 7.0724487 -4.608694 12.173889 -4.608694c5.159424 0 9.198059 1.4686012 12.115936 4.405796c2.9371948 2.9178753 4.405792 7.101446 4.405792 12.550718c0 4.927536 -1.6811523 9.91304 -5.043457 14.956516c-2.4927673 3.652172 -9.246368 10.608692 -20.260864 20.869553c-13.681152 12.695648 -22.840576 22.888878 -27.478241 30.579704c-4.6376953 7.671486 -7.420288 15.797089 -8.347839 24.3768l85.65213 0l0 -22.695648l-48.521698 0c1.2753601 -2.202896 2.9371948 -4.4637604 4.985504 -6.7826004c2.067627 -2.31884 6.9565125 -7.014496 14.6666565 -14.086952c7.710144 -7.072464 13.043457 -12.492752 16.0 -16.260864c4.463745 -5.681156 7.7197876 -11.111103 9.768097 -16.289848c2.0676575 -5.198063 3.1014404 -10.66666 3.1014404 -16.405788c0 -10.086954 -3.5941772 -18.521732 -10.782593 -25.304338c-7.188385 -6.782606 -17.072449 -10.173909 -29.65216 -10.173909z" fill-rule="evenodd"/><path fill="#03fa6e" d="m431.9909 0.39900705c-11.478241 0 -21.043457 2.927535 -28.695618 8.782605c-7.652191 5.85507 -12.202911 15.50724 -13.652191 28.95651l24.34784 2.4347801c0.46374512 -7.130432 2.2028809 -12.231878 5.2173767 -15.30434c3.0144958 -3.072462 7.0724487 -4.608694 12.17392 -4.608694c5.1593933 0 9.198059 1.4686012 12.115936 4.405796c2.9371948 2.9178753 4.405792 7.101446 4.405792 12.550718c0 4.927536 -1.6811523 9.91304 -5.0434875 14.956516c-2.4927368 3.652172 -9.246368 10.608692 -20.260864 20.869553c-13.681152 12.695648 -22.840576 22.888878 -27.478241 30.579704c-4.637665 7.671486 -7.420288 15.797089 -8.347809 24.3768l85.65213 0l0 -22.695648l-48.52173 0c1.2753601 -2.202896 2.9371948 -4.4637604 4.985504 -6.7826004c2.067627 -2.31884 6.9565125 -7.014496 14.6666565 -14.086952c7.710144 -7.072464 13.043488 -12.492752 16.0 -16.260864c4.4637756 -5.681156 7.719818 -11.111103 9.768127 -16.289848c2.067627 -5.198063 3.1014404 -10.66666 3.1014404 -16.405788c0 -10.086954 -3.5942078 -18.521732 -10.782623 -25.304338c-7.188385 -6.782606 -17.072449 -10.173909 -29.65216 -10.173909z" fill-rule="evenodd"/></g></svg>